{
    "asset" : {
        "generator" : "Khronos glTF Blender I/O v1.8.19",
        "version" : "2.0"
    },
    "scene" : 0,
    "scenes" : [
        {
            "name" : "Scene",
            "nodes" : [
                0
            ]
        }
    ],
    "nodes" : [
        {
            "mesh" : 0,
            "name" : "Remesh Color Centered - 2",
            "rotation" : [
                0,
                1,
                0,
                -4.371138828673793e-08
            ],
            "scale" : [
                1.1367425918579102,
                1.1378921270370483,
                1.1378921270370483
            ],
            "translation" : [
                0.020241938531398773,
                -5.2234448958188295e-05,
                0.06844545900821686
            ]
        }
    ],
    "materials" : [
        {
            "doubleSided" : true,
            "name" : "Material.001",
            "normalTexture" : {
                "index" : 0
            },
            "pbrMetallicRoughness" : {
                "baseColorTexture" : {
                    "index" : 1
                },
                "metallicFactor" : 0
            }
        }
    ],
    "meshes" : [
        {
            "name" : "mesh.002",
            "primitives" : [
                {
                    "attributes" : {
                        "POSITION" : 0,
                        "NORMAL" : 1,
                        "TEXCOORD_0" : 2
                    },
                    "indices" : 3,
                    "material" : 0
                }
            ]
        }
    ],
    "textures" : [
        {
            "sampler" : 0,
            "source" : 0
        },
        {
            "sampler" : 0,
            "source" : 1
        }
    ],
    "images" : [
        {
            "bufferView" : 4,
            "mimeType" : "image/png",
            "name" : "Normal_2"
        },
        {
            "bufferView" : 5,
            "mimeType" : "image/png",
            "name" : "Color_2-min"
        }
    ],
    "accessors" : [
        {
            "bufferView" : 0,
            "componentType" : 5126,
            "count" : 7769,
            "max" : [
                0.44133251905441284,
                0.39898544549942017,
                0.4007628262042999
            ],
            "min" : [
                -0.4383741021156311,
                -0.022712454199790955,
                -0.3357660472393036
            ],
            "type" : "VEC3"
        },
        {
            "bufferView" : 1,
            "componentType" : 5126,
            "count" : 7769,
            "type" : "VEC3"
        },
        {
            "bufferView" : 2,
            "componentType" : 5126,
            "count" : 7769,
            "type" : "VEC2"
        },
        {
            "bufferView" : 3,
            "componentType" : 5123,
            "count" : 34518,
            "type" : "SCALAR"
        }
    ],
    "bufferViews" : [
        {
            "buffer" : 0,
            "byteLength" : 93228,
            "byteOffset" : 0
        },
        {
            "buffer" : 0,
            "byteLength" : 93228,
            "byteOffset" : 93228
        },
        {
            "buffer" : 0,
            "byteLength" : 62152,
            "byteOffset" : 186456
        },
        {
            "buffer" : 0,
            "byteLength" : 69036,
            "byteOffset" : 248608
        },
        {
            "buffer" : 0,
            "byteLength" : 1383212,
            "byteOffset" : 317644
        },
        {
            "buffer" : 0,
            "byteLength" : 623633,
            "byteOffset" : 1700856
        }
    ],
    "samplers" : [
        {
            "magFilter" : 9729,
            "minFilter" : 9987
        }
    ],
    "buffers" : [
        {
            "byteLength" : 2324492,
            "uri" : "data:application/octet-stream;base64,"
        }
    ]
}
