{
  "asset": {
    "generator": "Khronos glTF Blender I/O v1.8.19",
    "version": "2.0"
  },
  "scene": 0,
  "scenes": [
    {
      "name": "Scene",
      "nodes": [0]
    }
  ],
  "nodes": [
    {
      "mesh": 0,
      "name": "Remesh Color - 1",
      "rotation": [0, 1, 0, -4.371138828673793e-8],
      "translation": [0.2986198365688324, 0.0007615406066179276, -1.1253595352172852]
    }
  ],
  "materials": [
    {
      "doubleSided": true,
      "name": "Material",
      "pbrMetallicRoughness": {
        "baseColorTexture": {
          "index": 0
        },
        "metallicFactor": 0
      }
    }
  ],
  "meshes": [
    {
      "name": "mesh.005",
      "primitives": [
        {
          "attributes": {
            "POSITION": 0,
            "NORMAL": 1,
            "TEXCOORD_0": 2
          },
          "indices": 3,
          "material": 0
        }
      ]
    }
  ],
  "textures": [
    {
      "sampler": 0,
      "source": 0
    }
  ],
  "images": [
    {
      "bufferView": 4,
      "mimeType": "image/png",
      "name": "Color_1-min"
    }
  ],
  "accessors": [
    {
      "bufferView": 0,
      "componentType": 5126,
      "count": 8824,
      "max": [0.4202416241168976, 0.40157315135002136, 0.32214677333831787],
      "min": [-0.45946502685546875, -0.014728852547705173, -0.41438207030296326],
      "type": "VEC3"
    },
    {
      "bufferView": 1,
      "componentType": 5126,
      "count": 8824,
      "type": "VEC3"
    },
    {
      "bufferView": 2,
      "componentType": 5126,
      "count": 8824,
      "type": "VEC2"
    },
    {
      "bufferView": 3,
      "componentType": 5123,
      "count": 35676,
      "type": "SCALAR"
    }
  ],
  "bufferViews": [
    {
      "buffer": 0,
      "byteLength": 105888,
      "byteOffset": 0
    },
    {
      "buffer": 0,
      "byteLength": 105888,
      "byteOffset": 105888
    },
    {
      "buffer": 0,
      "byteLength": 70592,
      "byteOffset": 211776
    },
    {
      "buffer": 0,
      "byteLength": 71352,
      "byteOffset": 282368
    },
    {
      "buffer": 0,
      "byteLength": 691978,
      "byteOffset": 353720
    }
  ],
  "samplers": [
    {
      "magFilter": 9729,
      "minFilter": 9987
    }
  ],
  "buffers": [
    {
      "byteLength": 1045700,
      "uri": "data:application/octet-stream;base64,"
    }
  ]
}
