{
    "asset" : {
        "generator" : "Khronos glTF Blender I/O v1.8.19",
        "version" : "2.0"
    },
    "scene" : 0,
    "scenes" : [
        {
            "name" : "Scene",
            "nodes" : [
                0
            ]
        }
    ],
    "nodes" : [
        {
            "mesh" : 0,
            "name" : "Remesh Color Centered - 1",
            "rotation" : [
                0,
                1,
                0,
                -4.371138828673793e-08
            ],
            "scale" : [
                1.1367425918579102,
                1.1378921270370483,
                1.1378921270370483
            ],
            "translation" : [
                -0.017830966040492058,
                0.0008140283753164113,
                -0.050622738897800446
            ]
        }
    ],
    "materials" : [
        {
            "doubleSided" : true,
            "name" : "Material",
            "normalTexture" : {
                "index" : 0
            },
            "pbrMetallicRoughness" : {
                "baseColorTexture" : {
                    "index" : 1
                },
                "metallicFactor" : 0
            }
        }
    ],
    "meshes" : [
        {
            "name" : "mesh.003",
            "primitives" : [
                {
                    "attributes" : {
                        "POSITION" : 0,
                        "NORMAL" : 1,
                        "TEXCOORD_0" : 2
                    },
                    "indices" : 3,
                    "material" : 0
                }
            ]
        }
    ],
    "textures" : [
        {
            "sampler" : 0,
            "source" : 0
        },
        {
            "sampler" : 0,
            "source" : 1
        }
    ],
    "images" : [
        {
            "bufferView" : 4,
            "mimeType" : "image/png",
            "name" : "Normal_1"
        },
        {
            "bufferView" : 5,
            "mimeType" : "image/png",
            "name" : "Color_1-min"
        }
    ],
    "accessors" : [
        {
            "bufferView" : 0,
            "componentType" : 5126,
            "count" : 8824,
            "max" : [
                0.4202416241168976,
                0.40157315135002136,
                0.32214677333831787
            ],
            "min" : [
                -0.45946502685546875,
                -0.014728852547705173,
                -0.41438207030296326
            ],
            "type" : "VEC3"
        },
        {
            "bufferView" : 1,
            "componentType" : 5126,
            "count" : 8824,
            "type" : "VEC3"
        },
        {
            "bufferView" : 2,
            "componentType" : 5126,
            "count" : 8824,
            "type" : "VEC2"
        },
        {
            "bufferView" : 3,
            "componentType" : 5123,
            "count" : 35676,
            "type" : "SCALAR"
        }
    ],
    "bufferViews" : [
        {
            "buffer" : 0,
            "byteLength" : 105888,
            "byteOffset" : 0
        },
        {
            "buffer" : 0,
            "byteLength" : 105888,
            "byteOffset" : 105888
        },
        {
            "buffer" : 0,
            "byteLength" : 70592,
            "byteOffset" : 211776
        },
        {
            "buffer" : 0,
            "byteLength" : 71352,
            "byteOffset" : 282368
        },
        {
            "buffer" : 0,
            "byteLength" : 1548716,
            "byteOffset" : 353720
        },
        {
            "buffer" : 0,
            "byteLength" : 691978,
            "byteOffset" : 1902436
        }
    ],
    "samplers" : [
        {
            "magFilter" : 9729,
            "minFilter" : 9987
        }
    ],
    "buffers" : [
        {
            "byteLength" : 2594416,
            "uri" : "data:application/octet-stream;base64,"
        }
    ]
}
